<svg xmlns="http://www.w3.org/2000/svg" width="10.318" height="11.792" viewBox="0 0 10.318 11.792">
  <defs>
    <style>
      .cls-1 {
        fill: #f27321;
      }
    </style>
  </defs>
  <g id="calendar_card" transform="translate(-104.48 -147.915)">
    <path id="Path_16580" data-name="Path 16580" class="cls-1" d="M114.8,150.495V151.6H104.48v-1.105a1.106,1.106,0,0,1,1.106-1.105h1.105v-1.105a.37.37,0,0,1,.368-.369h.737a.37.37,0,0,1,.368.369v1.105h2.948v-1.105a.37.37,0,0,1,.368-.369h.737a.37.37,0,0,1,.368.369v1.105h1.105A1.106,1.106,0,0,1,114.8,150.495Zm-10.318,1.842H114.8V158.6a1.106,1.106,0,0,1-1.105,1.105h-8.107a1.106,1.106,0,0,1-1.106-1.105Zm1.474,2.672a.277.277,0,0,0,.276.276h.921a.277.277,0,0,0,.276-.276v-.921a.277.277,0,0,0-.276-.276h-.921a.277.277,0,0,0-.276.276Zm0,2.948a.277.277,0,0,0,.276.276h.921a.277.277,0,0,0,.276-.276v-.921a.277.277,0,0,0-.276-.276h-.921a.277.277,0,0,0-.276.276Zm2.948-2.948a.277.277,0,0,0,.276.276h.921a.277.277,0,0,0,.276-.276v-.921a.277.277,0,0,0-.276-.276h-.921a.277.277,0,0,0-.276.276Zm0,2.948a.277.277,0,0,0,.276.276h.921a.277.277,0,0,0,.276-.276v-.921a.277.277,0,0,0-.276-.276h-.921a.277.277,0,0,0-.276.276Zm2.948-2.948a.277.277,0,0,0,.276.276h.921a.277.277,0,0,0,.276-.276v-.921a.277.277,0,0,0-.276-.276h-.921a.277.277,0,0,0-.276.276Zm0,2.948a.277.277,0,0,0,.276.276h.921a.277.277,0,0,0,.276-.276v-.921a.277.277,0,0,0-.276-.276h-.921a.277.277,0,0,0-.276.276Z" transform="translate(0 0)"/>
  </g>
</svg>
