<svg xmlns="http://www.w3.org/2000/svg" width="22.883" height="25.425" viewBox="0 0 22.883 25.425">
  <defs>
    <style>
      .cls-1 {
        fill: #292929;
      }
    </style>
  </defs>
  <path id="calendar" class="cls-1" d="M.009,8.609a6.747,6.747,0,0,1,1.064-4l.2-.289.016-.016.137-.161h0l.144-.165.016-.017a5.208,5.208,0,0,1,.907-.741l.093-.059h0l.093-.054L2.9,2.985c.088-.042.184-.092.273-.134.064-.025.129-.058.193-.083.121-.051.25-.1.378-.143a.659.659,0,0,1,.136-.05l.052-.021h0l.057-.021a9.2,9.2,0,0,1,1.8-.352l-.063.007V.926a.915.915,0,1,1,1.831,0v4a.915.915,0,1,1-1.831,0V4a6.028,6.028,0,0,0-1.749.446C2.528,5.094,1.84,6.33,1.775,8.29L1.77,8.6V9.1H21.114v-.5a5.607,5.607,0,0,0-.531-2.626A3.348,3.348,0,0,0,18.9,4.432a5.828,5.828,0,0,0-1.422-.408l-.318-.039v.932a.915.915,0,0,1-1.831,0v-1H7.56V2.1h7.771V.921A.915.915,0,0,1,17.162.907V2.183a8.83,8.83,0,0,1,1.318.232l.431.122a.716.716,0,0,1,.109.033c.048.017.088.034.136.05.128.042.246.092.37.143.071.025.136.058.192.083.1.042.194.092.273.134s.158.088.226.126.12.079.177.113a5.507,5.507,0,0,1,.7.537l.214.2.01.017.149.159h0l.141.167.008.016a6.731,6.731,0,0,1,1.266,3.934l-.009.354V9.1h.009v9.858c0,4.3-2.4,6.47-7.158,6.47H7.147C2.4,25.425,0,23.254,0,18.955H0V9.1H.009Zm16.665,9.5a1.067,1.067,0,0,0-1.058,1.08,1.081,1.081,0,0,0,1.058,1.08,1.081,1.081,0,0,0,0-2.161ZM11.447,18.1a1.086,1.086,0,0,0,0,2.172,1.067,1.067,0,0,0,1.048-1.092,1.087,1.087,0,0,0-1.048-1.08Zm-5.238,0a1.087,1.087,0,0,0,0,2.172,1.087,1.087,0,0,0,0-2.172Zm10.465-4.6a1.081,1.081,0,1,0,1.048,1.08A1.058,1.058,0,0,0,16.674,13.5Zm-5.227-.011a1.086,1.086,0,0,0,0,2.172,1.067,1.067,0,0,0,1.048-1.092,1.079,1.079,0,0,0-1.048-1.08Zm-5.227,0a1.076,1.076,0,0,0-1.058,1.092A1.048,1.048,0,1,0,6.22,13.486Z" transform="translate(0 0)"/>
</svg>
