<?xml version="1.0" encoding="utf-8"?>
<!-- Generator: Adobe Illustrator 24.0.2, SVG Export Plug-In . SVG Version: 6.00 Build 0)  -->
<svg version="1.1" id="Layer_1" xmlns="http://www.w3.org/2000/svg" xmlns:xlink="http://www.w3.org/1999/xlink" x="0px" y="0px"
	 viewBox="0 0 10.3 11.8" style="enable-background:new 0 0 10.3 11.8;" xml:space="preserve">
<style type="text/css">
	.st0{fill:#D0202F;}
</style>
<g id="calendar_card" transform="translate(-104.48 -147.915)">
	<path id="Path_16580" class="st0" d="M114.8,150.5v1.1h-10.3v-1.1c0-0.6,0.5-1.1,1.1-1.1h1.1v-1.1c0-0.2,0.2-0.4,0.4-0.4h0.7
		c0.2,0,0.4,0.2,0.4,0.4v1.1h2.9v-1.1c0-0.2,0.2-0.4,0.4-0.4h0.7c0.2,0,0.4,0.2,0.4,0.4v1.1h1.1
		C114.3,149.4,114.8,149.9,114.8,150.5C114.8,150.5,114.8,150.5,114.8,150.5z M104.5,152.3h10.3v6.3c0,0.6-0.5,1.1-1.1,1.1h-8.1
		c-0.6,0-1.1-0.5-1.1-1.1L104.5,152.3z M106,155c0,0.2,0.1,0.3,0.3,0.3h0.9c0.2,0,0.3-0.1,0.3-0.3v-0.9c0-0.2-0.1-0.3-0.3-0.3h-0.9
		c-0.2,0-0.3,0.1-0.3,0.3V155z M106,158c0,0.2,0.1,0.3,0.3,0.3h0.9c0.2,0,0.3-0.1,0.3-0.3V157c0-0.2-0.1-0.3-0.3-0.3h-0.9
		c-0.2,0-0.3,0.1-0.3,0.3V158z M108.9,155c0,0.2,0.1,0.3,0.3,0.3h0.9c0.2,0,0.3-0.1,0.3-0.3v-0.9c0-0.2-0.1-0.3-0.3-0.3h-0.9
		c-0.2,0-0.3,0.1-0.3,0.3V155z M108.9,158c0,0.2,0.1,0.3,0.3,0.3h0.9c0.2,0,0.3-0.1,0.3-0.3V157c0-0.2-0.1-0.3-0.3-0.3h-0.9
		c-0.2,0-0.3,0.1-0.3,0.3V158z M111.9,155c0,0.2,0.1,0.3,0.3,0.3h0.9c0.2,0,0.3-0.1,0.3-0.3v-0.9c0-0.2-0.1-0.3-0.3-0.3h-0.9
		c-0.2,0-0.3,0.1-0.3,0.3V155z M111.9,158c0,0.2,0.1,0.3,0.3,0.3h0.9c0.2,0,0.3-0.1,0.3-0.3V157c0-0.2-0.1-0.3-0.3-0.3h-0.9
		c-0.2,0-0.3,0.1-0.3,0.3V158z"/>
</g>
</svg>
