<svg xmlns="http://www.w3.org/2000/svg" width="14" height="14" viewBox="0 0 14 14">
  <defs>
    <style>
      .cls-1 {
        fill: #d0202f;
      }
    </style>
  </defs>
  <g id="clock" transform="translate(-365.869 -342.12)">
    <path id="Path_16581" data-name="Path 16581" class="cls-1" d="M379.869,349.12a7,7,0,1,1-7-7A7,7,0,0,1,379.869,349.12Zm-4.29,1.552a.451.451,0,0,0-.17-.353l-1.637-1.2v-4.065a.452.452,0,0,0-.452-.452h-.9a.452.452,0,0,0-.452.452v4.391a1.126,1.126,0,0,0,.423.882l1.891,1.4a.451.451,0,0,0,.635-.07l.564-.706A.451.451,0,0,0,375.579,350.673Z" transform="translate(0 0)"/>
  </g>
</svg>
