<svg xmlns="http://www.w3.org/2000/svg" width="27.013" height="33.767" viewBox="0 0 27.013 33.767">
  <g id="course" transform="translate(-5.775 -3.888)">
    <rect id="Rectangle_2232" data-name="Rectangle 2232" width="20.26" height="1.351" transform="translate(9.152 36.304)"/>
    <path id="Path_16577" data-name="Path 16577" d="M35.883,7H21.809A2.816,2.816,0,0,0,19,9.809V24.559a2.7,2.7,0,0,0,2.7,2.7H35.883a.675.675,0,0,0,.675-.675V7.675A.675.675,0,0,0,35.883,7ZM21.7,25.909a1.351,1.351,0,0,1-1.351-1.351V23.208A1.351,1.351,0,0,1,21.7,21.857H35.208v1.351H23.052v1.351H35.208v1.351Z" transform="translate(-8.497 -3.112)"/>
    <path id="Path_16578" data-name="Path 16578" d="M36.312,36.559a2.7,2.7,0,0,0,2.7-2.7V21.7a2.7,2.7,0,0,0-2.7-2.7h-.675V30.481a2.026,2.026,0,0,1-2.026,2.026H19.429a4.052,4.052,0,0,1-4.052-4.052V19H14.7A2.7,2.7,0,0,0,12,21.7V33.857a2.7,2.7,0,0,0,2.7,2.7h9.455v4.052H14.026v1.351H36.987V40.611H26.857V36.559Z" transform="translate(-6.225 -7.008)"/>
  </g>
</svg>
