<svg xmlns="http://www.w3.org/2000/svg" width="13.975" height="18.634" viewBox="0 0 13.975 18.634">
  <defs>
    <style>
      .cls-1 {
        fill: #d0202f;
      }
    </style>
  </defs>
  <g id="topic_" transform="translate(-23.163 -22.081)">
    <path id="Path_16579" data-name="Path 16579" class="cls-1" d="M32.189,27.9h4.95V39.841a.871.871,0,0,1-.873.874H24.036a.871.871,0,0,1-.873-.874V22.954a.871.871,0,0,1,.873-.873h7.279v4.95A.876.876,0,0,0,32.189,27.9Zm1.019,2.329H27.093a.438.438,0,0,0-.437.437v.291a.438.438,0,0,0,.437.437h6.114a.438.438,0,0,0,.437-.437V30.67A.438.438,0,0,0,33.208,30.233ZM33.644,33a.438.438,0,0,0-.437-.437H27.093a.438.438,0,0,0-.437.437v.291a.438.438,0,0,0,.437.437h6.114a.438.438,0,0,0,.437-.437Zm0,2.329a.438.438,0,0,0-.437-.437H27.093a.438.438,0,0,0-.437.437v.291a.438.438,0,0,0,.437.437h6.114a.438.438,0,0,0,.437-.437Zm3.494-8.589H32.48V22.081H32.7a.873.873,0,0,1,.619.255L36.884,25.9a.87.87,0,0,1,.255.615Z" transform="translate(0)"/>
  </g>
</svg>
